<svg width="600" height="600" viewBox="0 0 600 600" fill="none" xmlns="http://www.w3.org/2000/svg">
<g stroke="#FFFFFF" stroke-width="17" stroke-linecap="round" stroke-linejoin="round">
  <path d="M365.0 338.0 L365.0 335.3 L365.0 331.9 L365.0 327.8 L365.0 323.1 L365.0 318.1 L365.0 312.8 L365.0 307.4 L365.0 302.0 L365.0 296.3 L365.0 290.1 L365.0 283.6 L365.1 276.9 L365.1 270.3 L365.1 263.8 L365.0 257.6 L365.0 252.0 L365.0 246.8 L364.9 241.9 L364.9 237.2 L364.8 232.8 L364.7 228.5 L364.6 224.5 L364.3 220.7 L364.0 217.0 L363.6 213.6 L363.2 210.5 L362.8 207.6 L362.2 204.9 L361.6 202.3 L360.9 199.8 L360.0 197.4 L359.0 195.0 L357.8 192.6 L356.4 190.2 L354.9 188.0 L353.2 185.8 L351.5 183.6 L349.7 181.6 L347.9 179.8 L346.0 178.0 L344.1 176.4 L342.1 174.8 L340.0 173.4 L337.9 172.1 L335.7 170.9 L333.5 169.8 L331.2 168.9 L329.0 168.0 L326.7 167.2 L324.4 166.6 L322.0 166.1 L319.6 165.7 L317.2 165.4 L314.8 165.2 L312.4 165.0 L310.0 165.0 L307.6 165.0 L305.2 165.2 L302.8 165.4 L300.4 165.7 L298.0 166.1 L295.6 166.6 L293.3 167.2 L291.0 168.0 L288.8 168.9 L286.5 169.8 L284.3 170.9 L282.1 172.1 L280.0 173.4 L277.9 174.8 L275.9 176.4 L274.0 178.0 L272.1 179.8 L270.3 181.6 L268.5 183.6 L266.8 185.8 L265.1 188.0 L263.6 190.2 L262.2 192.6 L261.0 195.0 L260.0 197.4 L259.1 199.8 L258.4 202.3 L257.8 204.9 L257.2 207.6 L256.8 210.5 L256.4 213.6 L256.0 217.0 L255.7 220.7 L255.4 224.5 L255.3 228.5 L255.2 232.8 L255.1 237.2 L255.1 241.9 L255.0 246.8 L255.0 252.0 L255.0 257.7 L255.0 264.1 L255.0 270.9 L255.1 277.8 L255.1 284.6 L255.1 291.1 L255.1 297.0 L255.0 302.0 L254.9 306.1 L254.7 309.5 L254.6 312.3 L254.4 314.8 L254.1 317.0 L253.8 319.2 L253.5 321.4 L253.0 324.0 L252.5 326.8 L251.9 329.6 L251.3 332.4 L250.6 335.2 L249.9 338.0 L249.0 340.7 L248.1 343.4 L247.0 346.0 L245.8 348.6 L244.5 351.1 L243.2 353.6 L241.7 356.1 L240.1 358.4 L238.5 360.7 L236.8 362.9 L235.0 365.0 L233.1 367.0 L230.9 368.9 L228.7 370.7 L226.4 372.4 L224.1 374.0 L221.9 375.5 L219.8 376.8 L218.0 378.0 L216.5 379.1 L215.2 380.0 L214.1 380.9 L213.1 381.6 L212.0 382.1 L210.9 382.6 L209.6 382.9 L208.0 383.0 L206.1 383.0 L204.0 382.8 L201.7 382.4 L199.4 381.9 L197.0 381.3 L194.5 380.6 L192.2 379.8 L190.0 379.0 L187.9 378.2 L185.8 377.2 L183.7 376.3 L181.7 375.2 L179.7 374.0 L177.7 372.8 L175.8 371.4 L174.0 370.0 L172.2 368.4 L170.4 366.7 L168.6 364.9 L166.9 363.1 L165.3 361.1 L163.8 359.1 L162.3 357.1 L161.0 355.0 L159.8 352.9 L158.7 350.8 L157.7 348.6 L156.8 346.3 L156.0 344.0 L155.3 341.7 L154.6 339.4 L154.0 337.0 L153.5 334.6 L153.1 332.1 L152.7 329.6 L152.4 327.1 L152.2 324.6 L152.1 322.0 L152.0 319.5 L152.0 317.0 L152.0 314.5 L152.1 311.9 L152.3 309.4 L152.5 306.8 L152.8 304.3 L153.1 301.8 L153.5 299.4 L154.0 297.0 L154.5 294.7 L155.1 292.4 L155.8 290.2 L156.5 288.1 L157.3 286.0 L158.1 283.9 L159.0 281.9 L160.0 280.0 L161.1 278.1 L162.2 276.3 L163.5 274.6 L164.8 272.9 L166.1 271.3 L167.4 269.7 L168.7 268.3 L170.0 267.0 L171.2 265.8 L172.5 264.6 L173.7 263.6 L174.9 262.6 L176.2 261.8 L177.4 261.0 L178.7 260.5 L180.0 260.0 L181.3 259.7 L182.8 259.5 L184.2 259.5 L185.6 259.6 L187.1 259.8 L188.4 260.1 L189.8 260.5 L191.0 261.0 L192.2 261.6 L193.3 262.3 L194.4 263.1 L195.4 263.9 L196.4 264.9 L197.3 265.9 L198.2 266.9 L199.0 268.0 L199.8 269.1 L200.5 270.2 L201.2 271.4 L201.9 272.7 L202.5 274.0 L203.0 275.3 L203.5 276.6 L204.0 278.0 L204.4 279.5 L204.8 281.0 L205.1 282.7 L205.3 284.4 L205.5 286.0 L205.7 287.5 L205.9 288.9 L206.0 290.0 L206.1 290.9 L206.1 291.7 L206.1 292.3 L206.1 292.8 L206.1 293.1 L206.0 293.5 L206.0 293.7 L206.0 294.0"/>
  <path d="M322.0 358.0 L322.7 359.5 L323.7 361.6 L324.8 364.0 L326.1 366.7 L327.4 369.5 L328.9 372.2 L330.4 374.8 L332.0 377.0 L333.6 379.0 L335.4 380.9 L337.2 382.7 L339.1 384.4 L341.0 386.0 L343.0 387.5 L345.0 388.8 L347.0 390.0 L349.0 391.0 L351.1 391.9 L353.2 392.7 L355.3 393.3 L357.5 393.8 L359.6 394.1 L361.8 394.1 L364.0 394.0 L366.2 393.6 L368.5 393.0 L370.8 392.1 L373.1 391.1 L375.4 390.0 L377.7 388.7 L379.9 387.4 L382.0 386.0 L384.1 384.6 L386.1 383.0 L388.1 381.4 L390.0 379.6 L391.9 377.8 L393.7 375.9 L395.4 374.0 L397.0 372.0 L398.5 370.0 L399.9 367.9 L401.3 365.7 L402.6 363.5 L403.8 361.2 L404.9 358.9 L406.0 356.5 L407.0 354.0 L408.0 351.5 L408.8 348.9 L409.6 346.2 L410.4 343.4 L411.1 340.6 L411.7 337.8 L412.4 334.9 L413.0 332.0 L413.6 329.0 L414.2 326.0 L414.8 322.8 L415.3 319.7 L415.8 316.5 L416.3 313.3 L416.7 310.1 L417.0 307.0 L417.3 303.9 L417.5 300.8 L417.6 297.6 L417.8 294.5 L417.8 291.4 L417.9 288.2 L417.9 285.1 L418.0 282.0 L418.0 278.8 L418.0 275.5 L417.9 272.2 L417.9 268.9 L417.8 265.6 L417.8 262.5 L417.9 259.6 L418.0 257.0 L418.2 254.6 L418.4 252.4 L418.7 250.3 L419.0 248.4 L419.4 246.7 L419.8 245.0 L420.4 243.5 L421.0 242.0 L421.7 240.6 L422.6 239.3 L423.5 238.2 L424.6 237.1 L425.6 236.2 L426.7 235.3 L427.9 234.6 L429.0 234.0 L430.2 233.5 L431.4 233.1 L432.7 232.9 L434.1 232.8 L435.4 232.7 L436.7 232.7 L437.9 232.8 L439.0 233.0 L440.1 233.3 L441.1 233.7 L442.2 234.3 L443.1 234.9 L444.0 235.6 L444.8 236.2 L445.5 236.7 L446.0 237.0"/>
  <path d="M471.0 280.0 L471.0 281.7 L471.0 283.9 L471.0 286.5 L471.0 289.4 L471.0 292.6 L471.0 295.8 L471.0 299.0 L471.0 302.0 L471.0 305.0 L471.1 308.0 L471.1 311.2 L471.2 314.3 L471.2 317.5 L471.2 320.7 L471.1 323.9 L471.0 327.0 L470.8 330.1 L470.6 333.2 L470.3 336.4 L469.9 339.5 L469.5 342.6 L469.1 345.8 L468.6 348.9 L468.0 352.0 L467.3 355.1 L466.6 358.3 L465.8 361.5 L465.0 364.6 L464.1 367.8 L463.1 370.9 L462.1 374.0 L461.0 377.0 L459.9 380.0 L458.6 383.0 L457.4 386.0 L456.1 388.9 L454.7 391.8 L453.2 394.6 L451.6 397.4 L450.0 400.0 L448.3 402.5 L446.4 405.0 L444.5 407.4 L442.6 409.7 L440.5 411.9 L438.4 414.0 L436.2 416.1 L434.0 418.0 L431.7 419.8 L429.4 421.5 L427.0 423.2 L424.5 424.7 L422.0 426.1 L419.4 427.5 L416.7 428.8 L414.0 430.0 L411.2 431.1 L408.3 432.2 L405.4 433.2 L402.4 434.1 L399.3 434.9 L396.2 435.6 L393.1 436.4 L390.0 437.0 L386.8 437.6 L383.6 438.1 L380.3 438.6 L377.0 439.0 L373.7 439.3 L370.4 439.6 L367.2 439.8 L364.0 440.0 L360.8 440.1 L357.5 440.1 L354.2 440.0 L350.9 439.8 L347.7 439.6 L344.8 439.4 L342.2 439.2 L340.0 439.0 L338.2 438.8 L336.7 438.5 L335.5 438.2 L334.5 437.9 L333.7 437.6 L333.1 437.4 L332.5 437.2 L332.0 437.0"/>
  <path d="M132.0 393.0 L132.7 394.3 L133.7 396.2 L134.8 398.3 L136.1 400.8 L137.4 403.2 L138.9 405.7 L140.4 408.0 L142.0 410.0 L143.6 411.8 L145.4 413.4 L147.2 415.0 L149.1 416.6 L151.0 418.0 L153.0 419.4 L155.0 420.7 L157.0 422.0 L159.0 423.2 L161.1 424.4 L163.2 425.5 L165.3 426.6 L167.5 427.5 L169.6 428.4 L171.8 429.3 L174.0 430.0 L176.2 430.6 L178.5 431.2 L180.9 431.6 L183.2 432.0 L185.5 432.3 L187.8 432.6 L189.9 432.8 L192.0 433.0 L193.9 433.2 L195.6 433.3 L197.2 433.4 L198.8 433.4 L200.4 433.4 L202.1 433.4 L203.9 433.2 L206.0 433.0 L208.3 432.7 L210.8 432.4 L213.4 432.1 L216.1 431.6 L218.9 431.1 L221.7 430.5 L224.4 429.8 L227.0 429.0 L229.6 428.1 L232.1 427.0 L234.7 425.8 L237.2 424.6 L239.8 423.2 L242.2 421.9 L244.7 420.4 L247.0 419.0 L249.3 417.5 L251.5 416.0 L253.7 414.4 L255.8 412.8 L257.9 411.2 L260.0 409.5 L262.0 407.7 L264.0 406.0 L266.0 404.2 L268.0 402.4 L269.9 400.6 L271.9 398.7 L273.8 396.8 L275.6 394.9 L277.3 392.9 L279.0 391.0 L280.6 389.1 L282.1 387.1 L283.5 385.1 L284.9 383.1 L286.2 381.1 L287.5 379.1 L288.7 377.1 L290.0 375.0 L291.2 372.9 L292.4 370.8 L293.6 368.7 L294.8 366.5 L295.9 364.3 L296.9 362.2 L298.0 360.1 L299.0 358.0 L300.0 355.9 L300.9 353.9 L301.9 351.8 L302.8 349.8 L303.6 347.7 L304.4 345.8 L305.2 343.8 L306.0 342.0 L306.7 340.2 L307.5 338.4 L308.2 336.6 L308.9 334.9 L309.5 333.2 L310.1 331.7 L310.6 330.3 L311.0 329.0 L311.3 327.9 L311.6 326.9 L311.7 326.0 L311.8 325.2 L311.9 324.5 L311.9 323.9 L312.0 323.4 L312.0 323.0"/>
  <path d="M303 227 L303 247" stroke-width="18"/>
  <path d="M339 227 L339 247" stroke-width="18"/>
</g>
</svg>