<svg width="1513" height="306" viewBox="0 0 1513 306" fill="none" xmlns="http://www.w3.org/2000/svg">
<path d="M288.915 153C288.915 174.25 285.369 194.083 278.275 212.5C271.182 230.917 261.197 247.154 248.32 261.212C235.443 275.16 220.11 286.112 202.323 294.067C184.644 302.022 165.274 306 144.212 306C123.26 306 103.999 302.022 86.4291 294.067C68.8595 286.112 53.5817 275.16 40.5955 261.212C27.7184 247.154 17.7332 230.917 10.6399 212.5C3.54665 194.083 0 174.25 0 153C0 131.75 3.54665 111.917 10.6399 93.5C17.7332 75.0833 27.7184 58.8461 40.5955 44.7885C53.5817 30.8397 68.8595 19.8878 86.4291 11.9327C103.999 3.97757 123.26 0 144.212 0C165.274 0 184.644 3.97757 202.323 11.9327C220.11 19.8878 235.443 30.8397 248.32 44.7885C261.197 58.8461 271.182 75.0833 278.275 93.5C285.369 111.917 288.915 131.75 288.915 153ZM233.588 153C233.588 134.038 229.768 116.821 222.129 101.346C214.49 85.8718 204.014 73.6122 190.701 64.5673C177.387 55.5224 161.891 51 144.212 51C126.643 51 111.201 55.5224 97.8875 64.5673C84.5739 73.6122 74.1522 85.8173 66.6224 101.183C59.0926 116.439 55.3277 133.712 55.3277 153C55.3277 171.962 59.0926 189.179 66.6224 204.654C74.1522 220.128 84.5739 232.388 97.8875 241.433C111.201 250.478 126.643 255 144.212 255C161.891 255 177.387 250.478 190.701 241.433C204.014 232.388 214.49 220.128 222.129 204.654C229.768 189.179 233.588 171.962 233.588 153ZM438.366 70.125C454.517 70.125 468.649 71.8141 480.762 75.1923C492.766 78.5705 502.096 83.3109 508.753 89.4135C515.41 95.516 518.738 102.817 518.738 111.317C518.738 116.984 517.047 122.324 513.664 127.337C510.281 132.24 505.316 134.692 498.768 134.692C494.294 134.692 490.529 134.093 487.473 132.894C484.527 131.587 481.908 129.952 479.616 127.99C477.324 125.92 474.651 124.067 471.595 122.433C468.758 120.689 464.393 119.327 458.5 118.346C452.716 117.365 448.405 116.875 445.568 116.875C431.163 116.875 418.886 119.981 408.738 126.192C398.698 132.404 391.004 140.849 385.657 151.529C380.201 162.099 377.472 174.359 377.472 188.308C377.472 201.929 380.255 214.026 385.821 224.596C391.386 235.276 399.025 243.721 408.738 249.933C418.559 256.144 429.854 259.25 442.622 259.25C449.715 259.25 455.826 258.814 460.955 257.942C466.084 257.07 470.34 255.817 473.723 254.183C477.652 251.894 481.198 249.497 484.363 246.99C487.419 244.375 492.111 243.067 498.44 243.067C505.752 243.067 511.427 245.41 515.464 250.096C519.393 254.782 521.357 260.503 521.357 267.26C521.357 274.343 517.374 280.827 509.408 286.712C501.441 292.487 491.02 297.173 478.143 300.769C465.266 304.256 451.297 306 436.238 306C413.867 306 394.442 300.824 377.964 290.471C361.485 280.119 348.772 266.006 339.823 248.135C330.875 230.372 326.401 210.429 326.401 188.308C326.401 165.096 331.148 144.609 340.642 126.846C350.136 109.192 363.34 95.2981 380.255 85.1635C397.17 75.1378 416.54 70.125 438.366 70.125ZM560.971 78.625H661.805C668.57 78.625 674.245 80.9135 678.828 85.4904C683.412 89.9583 685.703 95.625 685.703 102.49C685.703 108.92 683.412 114.369 678.828 118.837C674.245 123.196 668.57 125.375 661.805 125.375H560.971C554.096 125.375 548.421 123.087 543.947 118.51C539.363 114.042 537.072 108.375 537.072 101.51C537.072 95.0801 539.363 89.6314 543.947 85.1635C548.421 80.8045 554.096 78.625 560.971 78.625ZM606.477 25.5C613.897 25.5 619.954 28.0064 624.647 33.0192C629.23 37.9231 631.522 44.0801 631.522 51.4904V240.615C631.522 244.538 632.34 247.753 633.977 250.26C635.505 252.875 637.633 254.728 640.361 255.817C642.98 257.016 645.872 257.615 649.037 257.615C652.419 257.615 655.53 256.962 658.367 255.654C661.204 254.346 664.478 253.692 668.188 253.692C672.117 253.692 675.718 255.545 678.992 259.25C682.266 262.955 683.903 268.077 683.903 274.615C683.903 282.462 679.592 288.946 670.971 294.067C662.35 299.189 653.074 301.75 643.144 301.75C637.142 301.75 630.539 301.26 623.337 300.279C616.025 299.298 609.205 296.901 602.876 293.087C596.437 289.272 591.09 283.388 586.834 275.433C582.578 267.478 580.45 256.58 580.45 242.74V51.4904C580.45 44.0801 582.96 37.9231 587.98 33.0192C592.89 28.0064 599.056 25.5 606.477 25.5ZM951.211 188.308C951.211 211.519 946.027 232.006 935.66 249.769C925.293 267.423 911.379 281.208 893.919 291.125C876.459 301.042 856.979 306 835.481 306C813.874 306 794.34 301.042 776.88 291.125C759.419 281.208 745.505 267.423 735.138 249.769C724.88 232.006 719.751 211.519 719.751 188.308C719.751 165.096 724.88 144.609 735.138 126.846C745.505 109.192 759.419 95.2981 776.88 85.1635C794.34 75.1378 813.874 70.125 835.481 70.125C856.979 70.125 876.459 75.1378 893.919 85.1635C911.379 95.2981 925.293 109.192 935.66 126.846C946.027 144.609 951.211 165.096 951.211 188.308ZM900.139 188.308C900.139 173.814 897.247 161.282 891.464 150.712C885.571 140.032 877.768 131.75 868.056 125.865C858.234 119.872 847.376 116.875 835.481 116.875C823.586 116.875 812.728 119.872 802.907 125.865C793.085 131.75 785.282 140.032 779.499 150.712C773.715 161.282 770.823 173.814 770.823 188.308C770.823 202.474 773.715 214.843 779.499 225.413C785.282 236.093 793.085 244.375 802.907 250.26C812.728 256.253 823.586 259.25 835.481 259.25C847.376 259.25 858.234 256.253 868.056 250.26C877.768 244.375 885.571 236.093 891.464 225.413C897.247 214.843 900.139 202.474 900.139 188.308ZM1140.6 306C1118.99 306 1098.86 302.022 1080.2 294.067C1061.43 286.112 1044.95 275.16 1030.77 261.212C1016.58 247.154 1005.45 230.917 997.372 212.5C989.297 194.083 985.259 174.25 985.259 153C985.259 131.75 989.297 111.917 997.372 93.5C1005.45 75.0833 1016.58 58.8461 1030.77 44.7885C1044.95 30.8397 1061.43 19.8878 1080.2 11.9327C1098.86 3.97757 1118.99 0 1140.6 0C1153.92 0 1166.85 1.41667 1179.4 4.25C1191.84 7.08334 1203.3 11.3333 1213.77 17C1218.03 19.2885 1221.25 22.3397 1223.43 26.1539C1225.5 29.968 1226.54 33.8365 1226.54 37.7596C1226.54 44.625 1224.3 50.7276 1219.83 56.0673C1215.25 61.516 1209.41 64.2404 1202.31 64.2404C1200.02 64.2404 1197.68 63.9135 1195.27 63.2596C1192.87 62.7147 1190.53 61.8974 1188.24 60.8077C1181.14 57.6474 1173.61 55.25 1165.65 53.6154C1157.79 51.8718 1149.44 51 1140.6 51C1122.16 51 1105.35 55.6314 1090.18 64.8942C1075.02 74.0481 1062.96 86.3622 1054.01 101.837C1045.06 117.202 1040.59 134.256 1040.59 153C1040.59 171.417 1045.06 188.417 1054.01 204C1062.96 219.583 1075.02 232.006 1090.18 241.269C1105.35 250.423 1122.16 255 1140.6 255C1149.11 255 1158.5 254.128 1168.76 252.385C1178.91 250.75 1187.25 248.516 1193.8 245.683L1190.04 258.433V185.692L1197.24 192.067H1149.93C1142.62 192.067 1136.46 189.67 1131.44 184.875C1126.52 180.08 1124.07 173.978 1124.07 166.567C1124.07 159.266 1126.52 153.163 1131.44 148.26C1136.46 143.465 1142.62 141.067 1149.93 141.067H1219.83C1227.14 141.067 1233.2 143.574 1238 148.587C1242.91 153.49 1245.36 159.647 1245.36 167.058V257.125C1245.36 262.792 1244 267.478 1241.27 271.183C1238.54 274.888 1235.49 277.83 1232.11 280.01C1219.01 287.965 1204.77 294.285 1189.38 298.971C1173.89 303.657 1157.63 306 1140.6 306ZM1513 188.308C1513 211.519 1507.82 232.006 1497.45 249.769C1487.08 267.423 1473.17 281.208 1455.71 291.125C1438.25 301.042 1418.77 306 1397.27 306C1375.66 306 1356.13 301.042 1338.67 291.125C1321.21 281.208 1307.35 267.423 1297.09 249.769C1286.72 232.006 1281.54 211.519 1281.54 188.308C1281.54 165.096 1286.72 144.609 1297.09 126.846C1307.35 109.192 1321.21 95.2981 1338.67 85.1635C1356.13 75.1378 1375.66 70.125 1397.27 70.125C1418.77 70.125 1438.25 75.1378 1455.71 85.1635C1473.17 95.2981 1487.08 109.192 1497.45 126.846C1507.82 144.609 1513 165.096 1513 188.308ZM1461.93 188.308C1461.93 173.814 1459.04 161.282 1453.25 150.712C1447.36 140.032 1439.56 131.75 1429.84 125.865C1420.02 119.872 1409.17 116.875 1397.27 116.875C1385.38 116.875 1374.52 119.872 1364.7 125.865C1354.87 131.75 1347.07 140.032 1341.29 150.712C1335.5 161.282 1332.61 173.814 1332.61 188.308C1332.61 202.474 1335.5 214.843 1341.29 225.413C1347.07 236.093 1354.87 244.375 1364.7 250.26C1374.52 256.253 1385.38 259.25 1397.27 259.25C1409.17 259.25 1420.02 256.253 1429.84 250.26C1439.56 244.375 1447.36 236.093 1453.25 225.413C1459.04 214.843 1461.93 202.474 1461.93 188.308Z" fill="#222222"/>
</svg>
